<?xml version="1.0" encoding="iso-8859-1"?>
<!-- Generator: Adobe Illustrator 19.0.0, SVG Export Plug-In . SVG Version: 6.00 Build 0)  -->
<svg version="1.1" id="Layer_1" xmlns="http://www.w3.org/2000/svg" xmlns:xlink="http://www.w3.org/1999/xlink" x="0px" y="0px"
	 viewBox="0 0 512 512" style="enable-background:new 0 0 512 512;" xml:space="preserve">
<path style="fill:#2D527C;" d="M256.001,196.758c-8.178,0-14.811-6.632-14.811-14.811V88.864c0-8.178,6.632-14.811,14.811-14.811
	c8.178,0,14.811,6.632,14.811,14.811v93.083C270.811,190.126,264.179,196.758,256.001,196.758z"/>
<path style="fill:#CEE8FA;" d="M292.811,83.176c0,20.331-16.481,36.811-36.811,36.811s-36.811-16.481-36.811-36.811
	c0-30.325,26.645-68.363,36.811-68.363C266.693,14.811,292.811,52.849,292.811,83.176z"/>
<path style="fill:#2D527C;" d="M256.001,134.797c-28.465,0-51.621-23.158-51.621-51.621c0-15.993,6.08-35.361,16.684-53.139
	C229.232,16.333,241.928,0,256.001,0c23.934,0,51.621,50.333,51.621,83.174C307.622,111.639,284.464,134.797,256.001,134.797z
	 M256.158,31.938c-7.933,8.569-22.158,31.799-22.158,51.236c0,12.13,9.87,22,22,22c12.13,0,22-9.87,22-22
	C278.001,64.277,264.393,40.629,256.158,31.938z"/>
<path style="fill:#CEE8FA;" d="M429.575,289.085H82.426c-27.191,0-49.44-22.247-49.44-49.44l0,0c0-27.191,22.247-49.44,49.44-49.44
	h347.149c27.191,0,49.44,22.247,49.44,49.44l0,0C479.015,266.838,456.766,289.085,429.575,289.085z"/>
<g>
	<path style="fill:#2D527C;" d="M429.575,303.897H82.425c-35.427,0-64.25-28.823-64.25-64.25s28.823-64.25,64.25-64.25h347.15
		c35.427,0,64.251,28.823,64.251,64.25S465.003,303.897,429.575,303.897z M82.425,205.018c-19.095,0-34.629,15.534-34.629,34.629
		s15.534,34.629,34.629,34.629h347.15c19.096,0,34.629-15.534,34.629-34.629s-15.534-34.629-34.629-34.629H82.425z"/>
	<path style="fill:#2D527C;" d="M429.575,407.947h-34.091c-8.178,0-14.811-6.632-14.811-14.811s6.632-14.811,14.811-14.811h34.091
		c19.096,0,34.629-15.534,34.629-34.629c0-19.095-15.534-34.629-34.629-34.629H82.425c-19.095,0-34.629,15.534-34.629,34.629
		c0,19.095,15.535,34.629,34.629,34.629h247.628c8.178,0,14.811,6.632,14.811,14.811s-6.632,14.811-14.811,14.811H82.425
		c-35.427,0-64.25-28.823-64.25-64.25s28.823-64.25,64.25-64.25h347.15c35.427,0,64.251,28.823,64.251,64.25
		S465.003,407.947,429.575,407.947z"/>
	<path style="fill:#2D527C;" d="M429.575,512H82.425c-35.427,0-64.25-28.823-64.25-64.25s28.823-64.251,64.25-64.251h247.628
		c8.178,0,14.811,6.632,14.811,14.811s-6.632,14.811-14.811,14.811H82.425c-19.095,0-34.629,15.534-34.629,34.628
		c0,19.095,15.534,34.63,34.629,34.63h347.15c19.096,0,34.629-15.534,34.629-34.629s-15.534-34.629-34.629-34.629h-34.091
		c-8.178,0-14.811-6.632-14.811-14.811s6.632-14.811,14.811-14.811h34.091c35.427,0,64.251,28.822,64.251,64.249
		C493.826,483.177,465.003,512,429.575,512z"/>
</g>
<path style="fill:#CEE8FA;" d="M215.399,190.207h-1.343h-97.536v224.461c0,27.191,22.247,49.44,49.44,49.44l0,0
	c27.191,0,49.44-22.247,49.44-49.44v-32.425c0-8.377,9.793-12.839,16.175-7.414c8.972,7.628,20.677,12.123,33.386,11.749
	c26.892-0.788,47.973-23.508,47.973-50.411v-145.96L215.399,190.207L215.399,190.207z"/>
<path style="fill:#2D527C;" d="M165.96,478.917c-35.429,0-64.252-28.823-64.252-64.25v-224.46c0-8.178,6.632-14.811,14.811-14.811
	h196.414c8.178,0,14.811,6.632,14.811,14.811v145.96c0,34.953-27.972,64.209-62.352,65.216c-12.488,0.341-24.655-2.922-35.184-9.326
	v22.612C230.209,450.094,201.388,478.917,165.96,478.917z M131.33,205.018v209.65c0,19.096,15.534,34.629,34.629,34.629h0.001
	c19.094,0,34.628-15.534,34.628-34.629v-32.425c0-13.565,11.053-24.599,24.638-24.599c5.804,0,11.465,2.094,15.942,5.899
	c6.514,5.538,14.783,8.466,23.36,8.23c18.525-0.542,33.597-16.515,33.597-35.607V205.018H131.33z"/>
<g>
</g>
<g>
</g>
<g>
</g>
<g>
</g>
<g>
</g>
<g>
</g>
<g>
</g>
<g>
</g>
<g>
</g>
<g>
</g>
<g>
</g>
<g>
</g>
<g>
</g>
<g>
</g>
<g>
</g>
</svg>
